<?xml version="1.0" encoding="UTF-8"?>
<svg id="_レイヤー_2" data-name="レイヤー 2" xmlns="http://www.w3.org/2000/svg" viewBox="0 0 340 135.83">
  <defs>
    <style>
      .cls-1 {
        fill: #fff;
      }

      .cls-2 {
        fill: #b89332;
      }

      .cls-3 {
        fill: #cc2823;
      }
    </style>
  </defs>
  <g id="_レイヤー_6" data-name="レイヤー 6">
    <g>
      <g>
        <path class="cls-3" d="M167.27,96.8c-4.8,2.08-10.62,3.36-17.39,3.79-.27,0-.43-.11-.48-.32-.05-.27.05-.43.32-.48,7.58-2.19,12.75-4.22,15.53-6.19,3.36-2.4,5.18-5.71,5.44-9.92.21-3.47-.8-6.14-3.09-8-2.08,4.32-4.32,7.79-6.83,10.46.48,1.92.69,2.99.69,3.2,0,1.28-.75,2.24-2.29,2.88l-1.28.53c-.37.16-.69.21-.96.21-.69,0-1.17-.21-1.44-.64-.16-.27-.32-.75-.48-1.49-2.45,1.33-4.91,2.08-7.36,2.13-1.81.05-3.09-.53-3.84-1.71-.59-.96-.91-2.4-.85-4.27.05-2.83,1.12-5.44,3.31-7.9,1.92-2.19,4.27-3.9,7.1-5.07,0-2.19.11-4.59.27-7.2-2.61.21-5.39.37-8.22.53-.05.05-.11,0-.16-.11l-.69-2.19c-.05-.05,0-.11.16-.11,2.56-.11,5.6-.27,9.07-.48.05-1.01.27-3.41.64-7.1,0-.05.05-.11.16-.16l6.3-.21c.53-.05.8.21.8.75,0,.48-.27.75-.75.8-.32,2.08-.59,3.95-.8,5.5,3.63-.27,6.94-.64,9.87-1.01l3.41-2.29c.21-.16.37-.11.43.11l1.39,3.47c.11.16.05.27-.21.32-4.8.59-9.87,1.12-15.15,1.65-.27,2.19-.43,4.16-.48,6.03,1.44-.21,2.88-.32,4.22-.32.59,0,1.17,0,1.76.05.43-1.01.8-1.97,1.12-2.93.05-.05.11-.11.16-.05l2.4,1.44c.43.27.53.64.37,1.12-.05.05-.16.37-.37.91,2.83.8,5.02,2.24,6.56,4.22s2.29,4.43,2.19,7.26c-.27,5.6-3.73,9.87-10.51,12.81ZM153.4,77.06c-2.88,2.08-4.43,4.43-4.7,7.04-.11.96-.05,1.6.11,1.87.27.43.8.59,1.71.53,1.01-.11,2.19-.48,3.57-1.17-.37-2.72-.64-5.44-.69-8.27ZM162.68,74.07c-1.01,0-2.13.11-3.25.37h-.11c0,1.97.16,4.11.43,6.3,1.6-1.76,3.09-3.95,4.48-6.56-.48-.05-1.01-.11-1.55-.11Z"/>
        <path class="cls-2" d="M218,74.98l-7.26,1.17c2.4,6.03,3.58,9.87,3.58,11.42s-.37,2.72-1.12,3.68c-.8,1.07-1.97,1.6-3.41,1.6-1.65,0-2.61-.8-2.77-2.45-.05-.69-.11-1.07-.11-1.17-.16-.48-.37-.85-.69-1.12-1.87-1.65-4.11-2.45-6.72-2.45-3.04,0-4.54,1.23-4.48,3.63,0,1.97,1.55,3.31,4.7,3.95,1.23.27,1.87.85,1.87,1.81,0,.21-.05.64-.16,1.23l-.32,1.76c-.27,1.55-1.01,2.29-2.19,2.29-.32,0-.69-.05-1.12-.16-2.45-.64-4.43-1.81-5.98-3.58-1.55-1.71-2.24-3.79-2.19-6.24.05-2.35,1.01-4.11,2.83-5.28,1.55-1.01,3.52-1.49,5.98-1.49,1.81,0,4.38.37,7.68,1.17.16.05.32,0,.43-.11s.16-.27.11-.43c-.05-.37-.91-2.72-2.51-7.04-5.02.75-9.18,1.23-12.54,1.44-.16,0-.21-.05-.27-.16l-.75-1.92c-.05-.11,0-.16.11-.16,3.84-.27,8.06-.75,12.65-1.33-.59-1.55-1.6-4-3.09-7.42-4.48.48-8.38.75-11.63.85-.11.05-.16,0-.16-.11l-.69-1.92c-.05-.05,0-.11.11-.16,4.54-.21,8.38-.43,11.53-.69-1.12-2.51-2.35-5.02-3.79-7.47-.05-.05,0-.11.05-.16l6.3-2.29c.48-.16.8,0,.96.48.11.32,0,.59-.27.85.75,1.55,1.97,4.16,3.63,7.84,1.81-.21,3.52-.43,5.07-.64l3.2-2.4c.21-.16.37-.11.43.11l1.6,3.36c.05.21,0,.32-.21.37-2.19.32-5.28.75-9.28,1.23.69,1.6,1.65,4,2.88,7.2.43-.05,1.44-.21,2.99-.48l3.31-2.45c.16-.11.32-.05.37.11l1.6,3.36c.11.21.05.32-.21.37Z"/>
        <path class="cls-3" d="M258.02,95.63c-.43,1.17-1.12,1.76-2.13,1.76-.43,0-.8-.11-1.12-.37-1.44-1.12-3.52-2.61-6.19-4.48-1.12,5.07-4.75,7.47-10.78,7.2-2.08-.05-3.79-.91-5.02-2.56-1.17-1.49-1.76-3.31-1.71-5.5.05-2.08.69-3.68,1.92-4.91,1.23-1.23,2.93-1.87,5.02-2.03.53-.05,1.92,0,4.11.05-.05-1.92-.11-4.11-.11-6.56-2.83.27-5.39.48-7.63.64-.11,0-.16-.05-.16-.11l-.59-1.97c0-.11.05-.16.11-.16,2.4-.05,5.18-.27,8.27-.53v-7.47c-3.52.32-7.15.53-10.89.64-.11,0-.16-.05-.16-.16l-.59-1.81c0-.11.05-.16.11-.16,2.93-.11,6.78-.32,11.53-.69.05-4.27,0-6.99-.11-8.16,0-.11.05-.16.16-.16l6.72-.21c.48,0,.75.27.75.75,0,.27-.16.53-.43.69-.16.05-.27,2.24-.32,6.51,1.23-.11,2.83-.27,4.8-.48l3.25-2.4c.05-.05.11-.05.16-.05.11-.05.21,0,.27.16l1.55,3.41c.05.21,0,.32-.21.32l-9.87,1.12-.05,1.39c-.05,1.87-.11,3.84-.11,6.03.8-.05,1.87-.21,3.31-.43l3.41-2.45c.21-.16.37-.11.43.11l1.55,3.36c.05.21,0,.32-.21.37-1.97.27-4.75.64-8.43,1.12.05,2.77.16,5.23.37,7.31.05.21.05.64.11,1.33,3.52,1.07,6.46,2.24,8.75,3.47.85.48,1.28,1.17,1.28,2.13,0,.37-.05.85-.16,1.39l-.96,2.56ZM237.27,89.22c-2.19.16-3.25,1.12-3.15,2.93.11,1.71,1.23,2.51,3.31,2.45,3.04-.16,4.64-1.71,4.7-4.64-1.87-.59-3.47-.8-4.86-.75Z"/>
        <path class="cls-2" d="M292.74,94.93c-3.04,1.44-8.22,2.4-15.47,2.93l-.53-.11c-.16-.05-.27-.16-.32-.43-.05-.27.21-.48.8-.59,4.38-.91,7.58-1.97,9.6-3.09,3.36-1.87,4.96-4.54,4.91-8-.05-3.95-2.08-5.76-5.98-5.5-1.44.11-3.95.8-7.52,2.08-4.32,1.55-7.1,2.51-8.22,2.77,0,.32-.16.48-.48.53-.37.05-.64-.11-.69-.48l-.85-4.91c-.05-.11,0-.16.16-.16,2.24-.16,5.23-.53,8.96-1.23l8.96-1.65c3.36-.16,6.14.32,8.32,1.49,2.61,1.44,4,3.73,4.11,6.94.16,4.43-1.76,7.52-5.76,9.39Z"/>
        <path class="cls-3" d="M331.28,66.97c-4.43.59-9.02,1.12-13.77,1.6-.64,4-1.12,7.36-1.44,10.14-.05.43,0,.75.11.96s.37.27.75.11c1.87-.69,3.31-1.07,4.43-1.12,3.04-.16,5.44.43,7.2,1.71,1.97,1.44,2.88,3.63,2.83,6.62-.16,7.63-7.42,11.74-21.72,12.33-.43,0-.64-.16-.69-.53,0-.32.21-.53.64-.59,4.27-.8,7.42-1.81,9.44-2.93,3.2-1.81,4.91-4.43,5.12-7.84.16-1.92-.11-3.41-.75-4.43-.75-1.23-2.03-1.81-3.9-1.71-1.28.05-2.29.59-3.09,1.55-.05.05-.16.64-.27,1.65-.16,1.07-.53,1.81-1.12,2.19s-1.44.53-2.56.37c-.96-.11-1.71-.64-2.24-1.6-.48-.85-.69-1.81-.64-2.83.05-1.39.64-5.87,1.71-13.5-2.99.21-5.23.37-6.72.43-.11,0-.16-.05-.16-.16l-.8-1.92c-.05-.11,0-.16.11-.16,1.6-.05,4.22-.21,7.9-.48.27-2.08.43-4.06.43-5.82,0-1.01-.05-2.03-.16-2.99-.05-.11,0-.16.11-.16l5.92-.27c.53-.05.8.16.85.64.05.37-.11.64-.48.8.05,1.97-.11,4.43-.48,7.31,3.04-.27,5.82-.59,8.38-.85l3.41-2.35c.16-.11.32-.11.37.05l1.49,3.47c.11.16.05.27-.21.32Z"/>
      </g>
      <g>
        <g>
          <path class="cls-2" d="M126.88.56c.26.34.74.42,1.13.55.4.4,1,.89,1.47,1.15.31.56.69,1.11,1.18,1.52,0,.23.16.58.34.71l.16.4.23.73.35.76.21.76.23,1.31.31,1.9c.32,3.39.23,6.81-.15,10.19l-.17,1.51-.24,2.05-.24,1.7-.31,1.53-.25,1.49-.31,1.33-.23,1.15c-.03.14-.07.42-.14.56-.21.4-.3,1.05-.39,1.52-.04.19-.13.54-.19.73l-.35,1.13-.27,1.14-.3.79-.23.73c-.06.21-.08.59-.19.76-.16.24-.28.44-.37.75l-.25.9-.29.6c-.05.1-.11.32-.15.42l-.22.54-.93,1.9-.96,1.73-.46.63c-.15.2-.29.28-.45.19-.08-.05-.12-.14-.12-.27l-.43-.74-.9-1.86-.62-1.17-1.25-2.25,1.72-3.56c2.19-6.09,3.46-12.42,3.66-18.92.07-2.3-.11-4.47-.76-6.57-.75-2.4-2.93-3.58-5.35-3-6.03,1.45-13.94,7.79-18.41,12.42-2.52-1.67-5.11-2.81-7.91-3.96l4.03-3.15c4.1-3.19,8.29-6.11,12.76-8.6l1.89-1.05,4.69-2.14c.32,0,.62-.11.85-.34l3.45-.91c1.74-.46,3.52-.18,5.13.33Z"/>
          <path class="cls-3" d="M11.22.31c.88.19,1.76.42,2.62.73l1.87.66,3.23,1.5c2.66,1.23,5.05,2.83,7.63,4.42,4.17,2.75,8.14,5.6,11.98,8.83-2.94,1.11-5.43,2.31-7.89,3.91-3.97-4.06-8.31-7.48-13.2-10.25-1.73-.94-3.38-1.73-5.25-2.15-2.43-.55-4.58.62-5.33,3.03-2.1,6.68.31,17.85,2.67,24.74.54,1.59,1.2,2.94,1.99,4.34l-1.18,1.99-1.16,2.24-1.23,2.16-1.01-1.42-.28-.51-.78-1.7c-.22-.49-.49-.92-.68-1.39l-.36-.92-.22-.57-.2-.56-.22-.73-.34-.99-.22-.71c-.13-.41-.25-.77-.36-1.18l-.2-.73c-.09-.35-.19-.67-.31-.97-.07-.18-.12-.51-.16-.7-.1-.45-.25-.96-.36-1.41l-.26-1.09-.24-1.29-.2-1.12-.33-1.34-.21-1.51-.39-2.48-.18-1.67-.17-1.17c-.24-3.21-.44-6.42-.17-9.63l.32-2.05.22-.96c.08-.34.07-.83.24-1.13.22-.37.22-.73.35-1.11.15-.47.73-1.01.64-1.56.55-.36.81-1.02,1.21-1.45.96-1.04,2.2-1.87,3.57-2.15l.77-.16c1.25-.26,2.54-.07,3.78.19Z"/>
        </g>
        <g>
          <g>
            <path class="cls-2" d="M53.01,59.33c.09,7.11-8.17,6.36-11.51,2.42-2.93-3.1-.98-5.54,2.24-6.7,3.42-1.64,8.71-.46,9.26,4.18v.11Z"/>
            <circle class="cls-1" cx="49.21" cy="57.61" r="1.21"/>
          </g>
          <g>
            <path class="cls-2" d="M81.2,59.33c-.09,7.11,8.17,6.36,11.51,2.42,2.93-3.1.98-5.54-2.24-6.7-3.42-1.64-8.71-.46-9.26,4.18v.11Z"/>
            <circle class="cls-1" cx="85" cy="57.61" r="1.21"/>
          </g>
          <path class="cls-3" d="M48.31,92.58c-9.03,0-16.43-4.71-16.8-4.95l3.46-5.36c.09.06,8.75,5.5,17.39,3.47,4.7-1.1,8.66-4.29,11.76-9.46l5.47,3.28c-4.04,6.73-9.36,10.9-15.83,12.4-1.85.43-3.68.61-5.45.61Z"/>
          <path class="cls-2" d="M86.06,92.63c-1.77,0-3.6-.18-5.46-.61-6.48-1.51-11.81-5.69-15.85-12.42l5.47-3.28c3.11,5.18,7.08,8.37,11.79,9.48,8.66,2.04,17.34-3.43,17.43-3.48l3.46,5.37c-.37.24-7.79,4.95-16.83,4.95Z"/>
          <path class="cls-3" d="M78.76,70.71c0,5.34-4.99,9.67-11.15,9.67s-11.15-4.33-11.15-9.67,4.99-6.48,11.15-6.48,11.15,1.14,11.15,6.48Z"/>
        </g>
        <path class="cls-3" d="M74.05,117.65l-3.23-2.5c-.6-.42-3.97-3.38-5.03-4.49-1.72-1.8-6.96-7.28-13.67-7.28-3.13,0-6.7,1.12-9.33,2.82l5.55,4.32c1.19-.5,2.47-.76,3.79-.76,3.98,0,7.8,4,9.06,5.31,1.05,1.1,4.27,3.99,5.66,5.07.23.25.6.62,1.09,1.04l6.12-3.53Z"/>
        <polygon class="cls-3" points="91.7 118.36 82.83 124.74 86.34 124.74 340 124.74 340 118.36 91.7 118.36"/>
        <path class="cls-3" d="M56.33,128.74c-2.41.66-3.71.71-3.97.71h-.24c-5.42,0-9.83-4.42-9.83-9.84,0-.11,0-.22.01-.33l-5.7-4.44c-.44,1.49-.69,3.22-.69,4.77,0,8.91,7.22,16.17,16.12,16.22.09,0,.2,0,.34,0,1.24,0,4.4-.25,9.78-2.3l1.41-.62-7.23-4.17Z"/>
        <path class="cls-2" d="M96.36,116.18c-.1-.6-.19-1.12-.19-1.12-2-6.87-8.41-11.67-15.57-11.67-4.05,0-8.19,1.98-12.29,5.9-.15.15-.3.29-.44.43l4.82,4.21s.01-.01.02-.02c2.83-2.7,5.56-4.13,7.89-4.13,4.11,0,7.8,2.6,9.22,6.41h6.54Z"/>
        <path class="cls-2" d="M33.54,118.53H2.14v6.38h32.02l-.08-.37c-.44-1.97-.62-4-.54-6.02h0Z"/>
        <path class="cls-2" d="M80.37,129.44c-.32,0-.63-.03-.95-.07-.67-.09-1.34-.22-2-.38-1.06-.25-2.1-.56-3.13-.92-1.46-.5-2.88-1.07-4.29-1.69-.67-.3-1.34-.61-2-.92-.72-.35-1.5-.67-2.18-1.09l-.91-.58c-2.15.98-4.37,1.78-6.65,2.4l-1.6.43,1.63.87c13.15,7.72,20.16,8.34,22.08,8.34.12,0,.23,0,.31,0,5.59-.03,10.69-2.87,13.66-7.62,0,0,.33-.42.69-1.32h-7.82s-.18.16-.22.19c-.09.08-.18.15-.27.22-.17.14-.35.27-.53.4-.36.25-.74.48-1.13.68-.79.4-1.63.7-2.5.87-.72.15-1.46.22-2.19.2Z"/>
        <path class="cls-3" d="M75.74,126.59c4.18-2.53,8.45-5.48,13.06-8.94.06-.04-.4-.86-.45-.94-.44-.79-1.02-1.5-1.64-2.15-.31-.32-.63-.63-.96-.93-.09-.08-.98-.88-1.04-.84-5.25,3.92-10.24,7.23-14.84,9.84l-1.55.66,7.42,3.29Z"/>
        <path class="cls-2" d="M59.84,116.76c-1.35.7-3.02,1.17-5.24,1.48-1.47.2-3.04.3-4.8.3h-5.21l.09,1.3c.13,1.79.66,3.53,1.56,5.08h0s3.55,0,3.55,0c2.05,0,3.91-.12,5.67-.36,3.16-.44,5.62-1.18,7.72-2.35.48-.27.97-.58,1.47-.94l-4.83-4.5Z"/>
        <path class="cls-2" d="M50.14,114.48c-4.54-2.86-8.73-6.63-12.83-10.08-5.91-4.98-12.06-9.89-16.43-16.35-3.99-5.9-6.48-12.78-6.96-19.9-.06-.87-.09-1.74-.09-2.62,0-17.31,11.79-33.3,30.03-40.73,1.12-.46,2.28-.89,3.45-1.28l-5.86-4.63C20.8,27.31,7.46,45.62,7.46,65.53c0,14.8,7.39,27.74,18.33,37.29,5.46,4.77,10.93,9.5,16.7,13.9h.19c3.07.15,6.16-.03,9.19-.54l.8-.13s-2.51-1.57-2.51-1.57Z"/>
        <path class="cls-3" d="M91.17,18.89l-5.86,4.63c1.17.39,2.32.82,3.45,1.28,18.24,7.43,30.03,23.42,30.03,40.73,0,.87-.03,1.75-.09,2.62-.48,7.12-2.97,13.99-6.96,19.9-4.36,6.46-10.52,11.37-16.43,16.35-.71.6-1.43,1.21-2.15,1.82h0c1.42,1.51,2.68,3.16,3.76,4.92l.07.11c3.32-2.76,6.59-5.58,9.85-8.43,10.94-9.55,18.33-22.49,18.33-37.29,0-19.92-13.35-38.22-34-46.64Z"/>
      </g>
    </g>
  </g>
</svg>